<?xml version="1.0" encoding="utf-8"?>
<!-- Generator: Adobe Illustrator 24.3.0, SVG Export Plug-In . SVG Version: 6.00 Build 0)  -->
<svg version="1.1" id="Layer_1" xmlns="http://www.w3.org/2000/svg" xmlns:xlink="http://www.w3.org/1999/xlink" x="0px" y="0px"
	 viewBox="0 0 576 576" style="enable-background:new 0 0 576 576;" xml:space="preserve">
<g>
	<g>
		<path d="M265.66,328.9V199.17c0-3.25-2.64-5.9-5.9-5.9h-7.38c-3.25,0-5.88,2.64-5.88,5.9v99.24c0,3.35-4.61,4.26-5.88,1.16
			l-39.04-95.2l-0.05-0.11l-4.48-10.87l-0.04-0.11c-2.23,0.11-4.29,0.25-6.17,0.5c-6.84,0.84-11.68,2.52-14.64,5.09
			c-4.35,3.82-6.5,11.43-6.5,22.84v3.23c0,1.49,1.21,2.69,2.69,2.69h8.86c1.49,0,2.69-1.21,2.69-2.69v-2.92
			c0-6.51,0.9-11.01,2.66-13.53l52.38,127.71c0.91,2.22,3.07,3.67,5.45,3.67h10.26C260.75,339.85,265.66,334.95,265.66,328.9z"/>
		<path d="M205.05,328.54h-3.47c-7.29,0-12.03-1.12-14.29-3.4c-2.21-2.28-3.33-7.04-3.33-14.35v-19.23c0-8.08-1.16-13.94-3.48-17.58
			c-2.34-3.69-6.35-6.21-12.11-7.62c5.69-1.3,9.72-3.75,12.08-7.44c2.34-3.68,3.5-9.58,3.5-17.68v-2.37c0-1.49-1.21-2.69-2.69-2.69
			h-8.86c-1.49,0-2.69,1.21-2.69,2.69v1.46c0,7.75-1.4,13.08-4.18,16.03c-2.73,2.94-7.78,4.41-15.05,4.41h-4.99v11.1h4.99
			c7.27,0,12.32,1.51,15.05,4.49c2.78,3.02,4.18,8.43,4.18,16.21v18.54c0,11.43,2.14,19.05,6.5,22.88
			c4.35,3.82,12.95,5.75,25.83,5.75h3c0.99,0,1.8-0.8,1.8-1.8v-7.61C206.84,329.35,206.04,328.54,205.05,328.54z"/>
		<path d="M425.54,260.78c-7.29,0-12.32-1.47-15.08-4.42c-2.77-2.95-4.15-8.3-4.15-16.05V221.7c0-11.43-2.17-19.04-6.51-22.84
			c-4.34-3.8-12.95-5.7-25.82-5.7h-3.01c-0.99,0-1.8,0.8-1.8,1.8v7.5c0,0.99,0.8,1.8,1.8,1.8h3.48c7.29,0,12.04,1.14,14.27,3.41
			c2.22,2.28,3.33,7.06,3.33,14.35v19.23c0,8.12,1.17,14.01,3.53,17.68c2.35,3.67,6.37,6.15,12.06,7.44
			c-5.74,1.4-9.77,3.93-12.1,7.6c-2.33,3.67-3.49,9.54-3.49,17.6v19.23c0,7.29-1.11,12.07-3.33,14.35
			c-2.23,2.27-6.98,3.41-14.27,3.41h-3.48c-0.99,0-1.8,0.8-1.8,1.8v7.58c0,0.99,0.8,1.8,1.8,1.8h3.01c12.87,0,21.48-1.91,25.82-5.74
			c4.34-3.83,6.51-11.45,6.51-22.88v-18.53c0-7.81,1.38-13.21,4.15-16.21c2.76-3,7.79-4.5,15.08-4.5h4.96v-11.09H425.54z"/>
		<path d="M362.82,273.61c-2.65-3.28-5.79-5.94-9.42-7.97c-3.39-1.9-3.43-6.77-0.11-8.78c2.41-1.45,4.47-3.21,6.19-5.29
			c4.28-5.17,6.43-12.24,6.43-21.2c0-11.85-4.06-21.01-12.17-27.49c-8.11-6.48-19.67-9.72-34.65-9.72h-33.9
			c-5.24,0-9.5,4.25-9.5,9.5v127.57c0,5.24,4.25,9.5,9.5,9.5h33.9c17.21,0,30.17-3.39,38.87-10.16c8.7-6.77,13.05-16.8,13.05-30.09
			C371.02,289.01,368.29,280.39,362.82,273.61z M295.63,214.08c0-2.55,2.07-4.62,4.62-4.62h18.45c9.68,0,16.64,1.64,20.86,4.91
			c4.22,3.27,6.33,8.61,6.33,16c0,8.18-2.15,14.1-6.43,17.77c-4.29,3.67-11.21,5.5-20.76,5.5h-18.45c-2.55,0-4.62-2.07-4.62-4.62
			V214.08z M343.73,317.39c-4.91,4.02-13.12,6.04-24.64,6.04h-18.84c-2.55,0-4.62-2.07-4.62-4.62v-44.45c0-2.55,2.07-4.62,4.62-4.62
			h18.84c10.99,0,19.07,2.24,24.25,6.72c5.17,4.48,7.76,11.5,7.76,21.06C351.09,306.74,348.64,313.37,343.73,317.39z"/>
	</g>
	<path d="M319.45,372.94h-1.73l-6.3-8.69h0.1c1.3,0,2.35-1.02,2.35-2.28v-5.34c0-1.26-1.05-2.28-2.35-2.28h-39.01
		c-1.3,0-2.35,1.02-2.35,2.28v5.34c0,1.26,1.05,2.28,2.35,2.28h27.06l6.14,8.69h-49.16c-1.3,0-2.35,1.02-2.35,2.28v5.34
		c0,1.26,1.05,2.28,2.35,2.28h62.91c1.3,0,2.35-1.02,2.35-2.28v-5.34C321.81,373.96,320.75,372.94,319.45,372.94z"/>
</g>
</svg>
